<svg width="18" height="18" viewBox="0 0 18 18" fill="none" xmlns="http://www.w3.org/2000/svg">
<path d="M0 9C0 4.02944 4.02944 0 9 0C13.9706 0 18 4.02944 18 9C18 13.9706 13.9706 18 9 18C4.02944 18 0 13.9706 0 9Z" fill="#FC5468"/>
<path d="M9.00511 13.132C8.30111 13.132 7.74745 12.8167 7.34411 12.186C6.94811 11.548 6.75011 10.6423 6.75011 9.469C6.75011 8.28833 6.94811 7.39 7.34411 6.774C7.74745 6.158 8.30111 5.85 9.00511 5.85C9.70178 5.85 10.2481 6.158 10.6441 6.774C11.0474 7.39 11.2491 8.28833 11.2491 9.469C11.2491 10.6423 11.0474 11.548 10.6441 12.186C10.2481 12.8167 9.70178 13.132 9.00511 13.132ZM9.00511 12.406C9.41578 12.406 9.74578 12.175 9.99511 11.713C10.2444 11.2437 10.3691 10.4957 10.3691 9.469C10.3691 8.44233 10.2444 7.70533 9.99511 7.258C9.74578 6.80333 9.41578 6.576 9.00511 6.576C8.59445 6.576 8.26078 6.80333 8.00411 7.258C7.75478 7.70533 7.63011 8.44233 7.63011 9.469C7.63011 10.4957 7.75478 11.2437 8.00411 11.713C8.26078 12.175 8.59445 12.406 9.00511 12.406Z" fill="white"/>
</svg>
